<svg width="114" height="101" viewBox="0 0 114 101" fill="none" xmlns="http://www.w3.org/2000/svg">
<path d="M69.8694 0C70.2772 0.000409404 70.6421 0.254724 70.7836 0.637237L104.569 91.9541C104.973 93.0452 105.847 93.9756 107.01 94.0009C107.052 94.0018 107.094 94.0022 107.136 94.0022H110.094C111.765 94.0024 113.119 95.3563 113.119 97.0267C113.119 98.6967 111.765 100.051 110.094 100.051H106.458C106.363 100.051 106.268 100.068 106.173 100.068H65.7788C65.3709 100.068 65.0061 99.8136 64.8646 99.431L60.0828 86.5049C59.5215 84.9877 58.075 83.9805 56.4573 83.9805H42.7839C40.9248 83.9805 39.367 85.3223 38.7334 87.0701C35.9515 94.7454 28.599 100.23 19.963 100.23C8.9377 100.23 0 91.2901 0 80.2649C0.000642218 69.2402 8.9381 60.3025 19.963 60.3022C29.007 60.3022 36.6423 66.317 39.0953 74.564C39.6546 76.4444 41.2659 77.9316 43.2277 77.9316H51.3569C54.0486 77.9316 55.9163 75.2493 54.9823 72.7248L30.8882 7.60229C30.5699 6.74219 29.8457 6.04885 28.9286 6.04885H25.9703C24.2999 6.04876 22.9459 4.69486 22.9459 3.02442C22.9459 1.35404 24.2999 8.73115e-05 25.9703 0H69.8694Z" fill="#221F20"/>
</svg>
